<mxfile host="app.diagrams.net" modified="2023-02-20T03:14:23.009Z" agent="5.0 (Macintosh; Intel Mac OS X 10_15_7) AppleWebKit/537.36 (KHTML, like Gecko) Chrome/109.0.0.0 Safari/537.36" etag="aBH_dKG8Y5O1v0drIoju" version="20.8.20" type="github">
  <diagram name="Page-1" id="KI0IDtrnXQYys5q5XAEx">
    <mxGraphModel dx="984" dy="615" grid="1" gridSize="10" guides="1" tooltips="1" connect="1" arrows="1" fold="1" page="1" pageScale="1" pageWidth="827" pageHeight="1169" math="0" shadow="0">
      <root>
        <mxCell id="0" />
        <mxCell id="1" parent="0" />
        <mxCell id="rAiY6HFQocjvr_OUIa5D-2" value="" style="edgeStyle=orthogonalEdgeStyle;rounded=0;orthogonalLoop=1;jettySize=auto;html=1;" edge="1" parent="1" source="zg731yLg5L4P5mixHPkh-1" target="rAiY6HFQocjvr_OUIa5D-1">
          <mxGeometry relative="1" as="geometry" />
        </mxCell>
        <mxCell id="zg731yLg5L4P5mixHPkh-1" value="Enter GYM" style="rounded=1;whiteSpace=wrap;html=1;" parent="1" vertex="1">
          <mxGeometry x="339" y="80" width="120" height="60" as="geometry" />
        </mxCell>
        <mxCell id="zg731yLg5L4P5mixHPkh-3" style="edgeStyle=orthogonalEdgeStyle;rounded=0;orthogonalLoop=1;jettySize=auto;html=1;exitX=0.5;exitY=1;exitDx=0;exitDy=0;exitPerimeter=0;entryX=0.5;entryY=0;entryDx=0;entryDy=0;" parent="1" source="zg731yLg5L4P5mixHPkh-2" target="zg731yLg5L4P5mixHPkh-1" edge="1">
          <mxGeometry relative="1" as="geometry" />
        </mxCell>
        <mxCell id="zg731yLg5L4P5mixHPkh-4" value="Start" style="edgeLabel;html=1;align=center;verticalAlign=middle;resizable=0;points=[];" parent="zg731yLg5L4P5mixHPkh-3" vertex="1" connectable="0">
          <mxGeometry x="-0.1" y="1" relative="1" as="geometry">
            <mxPoint as="offset" />
          </mxGeometry>
        </mxCell>
        <mxCell id="zg731yLg5L4P5mixHPkh-2" value="" style="strokeWidth=2;html=1;shape=mxgraph.flowchart.start_2;whiteSpace=wrap;fillColor=#000000;" parent="1" vertex="1">
          <mxGeometry x="384" y="10" width="30" height="30" as="geometry" />
        </mxCell>
        <mxCell id="rAiY6HFQocjvr_OUIa5D-1" value="" style="whiteSpace=wrap;html=1;rounded=1;" vertex="1" parent="1">
          <mxGeometry x="339" y="220" width="120" height="60" as="geometry" />
        </mxCell>
      </root>
    </mxGraphModel>
  </diagram>
</mxfile>
